<?xml version="1.0" encoding="UTF-8" standalone="no"?>
<!-- Created with Inkscape (http://www.inkscape.org/) -->

<svg
   xmlns:dc="http://purl.org/dc/elements/1.1/"
   xmlns:cc="http://creativecommons.org/ns#"
   xmlns:rdf="http://www.w3.org/1999/02/22-rdf-syntax-ns#"
   xmlns:svg="http://www.w3.org/2000/svg"
   xmlns="http://www.w3.org/2000/svg"
   xmlns:sodipodi="http://sodipodi.sourceforge.net/DTD/sodipodi-0.dtd"
   xmlns:inkscape="http://www.inkscape.org/namespaces/inkscape"
   width="2483"
   height="2490"
   viewBox="0 0 656.9604 658.81252"
   version="1.1"
   id="svg5513"
   inkscape:version="0.92.2 (5c3e80d, 2017-08-06)"
   sodipodi:docname="12.svg">
  <defs
     id="defs5507" />
  <sodipodi:namedview
     id="base"
     pagecolor="#ffffff"
     bordercolor="#666666"
     borderopacity="1.0"
     inkscape:pageopacity="0.0"
     inkscape:pageshadow="2"
     inkscape:zoom="0.20156686"
     inkscape:cx="1556.2535"
     inkscape:cy="759.72612"
     inkscape:document-units="mm"
     inkscape:current-layer="layer1"
     showgrid="false"
     units="px"
     inkscape:window-width="1920"
     inkscape:window-height="1007"
     inkscape:window-x="-9"
     inkscape:window-y="-9"
     inkscape:window-maximized="1" />
  <metadata
     id="metadata5510">
    <rdf:RDF>
      <cc:Work
         rdf:about="">
        <dc:format>image/svg+xml</dc:format>
        <dc:type
           rdf:resource="http://purl.org/dc/dcmitype/StillImage" />
        <dc:title></dc:title>
      </cc:Work>
    </rdf:RDF>
  </metadata>
  <g
     inkscape:label="Layer 1"
     inkscape:groupmode="layer"
     id="layer1"
     transform="translate(0,361.81252)">
    <path
       style="stroke-width:0.12226067"
       inkscape:connector-curvature="0"
       d="m 323.19427,-349.29176 c -5.50424,8.19184 -15.40539,17.36139 -24.57598,22.6182 -5.01448,2.93502 -10.6391,6.4802 -12.47139,7.94669 -20.05103,15.03857 -27.38727,24.33032 -31.54415,40.3469 -2.32102,9.29124 -0.85504,17.23816 2.68988,14.42637 2.20113,-1.71085 12.47139,-4.89025 20.5423,-6.35726 3.66532,-0.73361 10.88119,-2.07894 15.89312,-3.17861 23.71734,-4.8905 38.75464,-5.01319 63.93874,-0.73363 15.53141,2.56744 33.37924,7.21256 37.29046,9.53638 5.13515,3.17888 6.35906,1.34455 5.86952,-7.70308 -0.85682,-12.83718 -8.18976,-25.67514 -22.12995,-38.51207 -4.27907,-3.91173 -13.69351,-10.2695 -25.18332,-17.11599 -7.94644,-4.76857 -13.57389,-10.02615 -21.88585,-20.41783 -2.2014,-2.81206 -4.40252,-5.13436 -4.76807,-5.13436 -0.36629,0 -2.07791,1.95575 -3.66531,4.27829 z"
       id="path4-6-42-1-2" />
    <path
       style="stroke-width:0.12226067"
       inkscape:connector-curvature="0"
       d="m 543.41003,-263.43879 c -9.61075,2.24919 -23.10463,2.21621 -33.39764,-0.18021 -5.67066,-1.26609 -12.20224,-2.50148 -14.54344,-2.67735 -24.92541,-2.64924 -36.62485,-0.8438 -50.5755,8.04995 -8.03207,5.21948 -12.37119,12.03736 -7.86207,12.39342 2.77883,0.24719 12.46271,4.91505 19.3685,9.33803 3.18577,1.96136 9.38454,5.89074 13.8019,8.49932 20.69465,12.578 31.78724,22.73145 47.3097,43.02171 9.61793,12.45657 19.52367,28.01712 20.80561,32.38335 1.59199,5.82479 3.73765,5.31559 9.54123,-1.64133 8.12,-9.98166 11.49236,-24.37659 10.03687,-43.26863 -0.47033,-5.77954 -3.03163,-16.84683 -6.77901,-29.6881 -2.57025,-8.90372 -3.10654,-16.58405 -2.11141,-29.85502 0.3019,-3.55847 0.25971,-6.7578 0,-7.00754 -0.25895,-0.24999 -2.85731,0.03 -5.60368,0.63394 z"
       id="path4-6-4-22-6-0" />
    <path
       style="stroke-width:0.12226067"
       inkscape:connector-curvature="0"
       d="m 642.77783,-44.717359 c -8.35951,-5.24095 -17.8348,-14.850952 -23.38019,-23.850268 -3.08789,-4.917855 -6.80969,-10.427721 -8.33573,-12.214249 -15.66076,-19.568914 -25.17797,-26.606874 -41.31519,-30.257894 -9.35977,-2.02961 -17.26043,-0.31286 -14.33716,3.14235 1.78115,2.14539 5.28108,12.310345 7.00166,20.329377 0.84713,3.64282 2.42148,10.810632 3.67452,15.786 5.6369,23.553247 6.23122,38.579564 2.74892,63.8878726 -2.07716,15.5994003 -6.1576,33.5870684 -8.35873,37.5708894 -3.01835,5.232514 -1.1439,6.396335 7.88404,5.623096 12.80268,-1.259698 25.40266,-8.995733 37.79405,-23.330342 3.77548,-4.3999727 9.83621,-14.0097084 16.31845,-25.710933 4.51603,-8.093403 9.58954,-13.880103 19.71718,-22.516947 2.74023,-2.288571 4.99325,-4.5605 4.98201,-4.927057 0,-0.366827 -2.02093,-2.016336 -4.39383,-3.531895 z"
       id="path4-6-9-4-0-4" />
    <path
       style="stroke-width:0.12226067"
       inkscape:connector-curvature="0"
       d="m 340.92144,279.92974 c 5.27855,-8.33675 14.93071,-17.77011 23.95253,-23.27335 4.93524,-3.06896 10.45941,-6.76493 12.25489,-8.28077 19.63613,-15.57357 26.71626,-25.06063 30.44166,-41.18303 2.06821,-9.35106 0.3893,-17.25555 -3.07919,-14.34917 -2.15282,1.77093 -12.33234,5.22537 -20.35981,6.91016 -3.64639,0.8328 -10.8188,2.37162 -15.80158,3.60678 -23.57932,5.52879 -38.60947,6.0574 -63.90118,2.46007 -15.59019,-2.14823 -33.56046,-6.31022 -37.5333,-8.52643 -5.21717,-3.03855 -6.39354,-1.17254 -5.65633,7.85825 1.2009,12.80931 8.87892,25.44355 23.16164,37.9001 4.38054,3.79517 13.96573,9.89681 25.63857,16.43068 8.07067,4.55206 13.83539,9.65473 22.42649,19.81892 2.27526,2.75149 4.53902,5.01473 4.90532,5.00424 0.36732,-0.03 2.02348,-2.0112 3.55029,-4.37645 z"
       id="path4-6-9-3-24-1-6" />
    <path
       style="stroke-width:0.12226067"
       inkscape:connector-curvature="0"
       d="m 564.02519,174.95698 c -2.32179,-9.5898 -2.39669,-23.08546 -0.0879,-33.3984 1.22032,-5.67883 2.40462,-12.22063 2.55952,-14.56416 2.45214,-24.94303 0.55468,-36.628139 -8.45025,-50.51055 -5.28211,-7.989634 -12.13321,-12.274312 -12.45375,-7.760346 -0.22981,2.779359 -4.8174,12.500039 -9.18645,19.44111 -1.93527,3.200091 -5.81585,9.429027 -8.38582,13.868606 -12.41441,20.79434 -22.48119,31.9672 -42.64928,47.6512 -12.37732,9.71713 -27.85838,19.74325 -32.21515,21.05995 -5.81379,1.63979 -5.2839,3.7806 1.71982,9.52998 10.043,8.0387 24.46477,11.29886 43.34735,9.69052 5.77341,-0.51431 16.82025,-3.16252 29.62802,-7.01445 8.88711,-2.64052 16.56233,-3.23741 29.84148,-2.35015 3.56153,0.27581 6.75855,0.22136 7.00702,-0.0486 0.25716,-0.26968 -0.0617,-2.85372 -0.67993,-5.59474 z"
       id="path4-6-4-1-9-5-8" />
    <path
       style="stroke-width:0.12226067"
       inkscape:connector-curvature="0"
       d="m 114.78503,-263.21767 c 9.60718,2.24945 23.10361,2.21622 33.40046,-0.18048 5.66681,-1.26711 12.19942,-2.50148 14.54064,-2.67735 24.92182,-2.64949 36.62381,-0.8438 50.57805,8.04895 8.02848,5.22048 12.3676,12.0381 7.8567,12.39443 -2.77626,0.24694 -12.4599,4.91505 -19.3685,9.33725 -3.18298,1.96239 -9.37918,5.89176 -13.80011,8.50036 -20.69466,12.57696 -31.78801,22.73143 -47.3097,43.02067 -9.62228,12.45709 -19.52087,28.01814 -20.80561,32.3831 -1.59352,5.82609 -3.73511,5.31585 -9.54378,-1.64107 -8.11745,-9.98065 -11.490592,-24.37583 -10.03152,-43.26837 0.46676,-5.77903 3.02705,-16.84632 6.77544,-29.6876 2.5728,-8.90398 3.10833,-16.58379 2.11601,-29.85578 -0.30034,-3.5572 -0.28809,-6.75678 0,-7.00677 0.25971,-0.24974 2.85373,0.03 5.59806,0.63367 z"
       id="path4-6-4-48-12-5-2" />
    <path
       style="stroke-width:0.12226067"
       inkscape:connector-curvature="0"
       d="m 15.411865,-44.495987 c 8.364104,-5.241218 17.839904,-14.850702 23.385557,-23.850287 3.090441,-4.917854 6.807899,-10.427453 8.331145,-12.21398 15.663553,-19.568416 25.179994,-26.608406 41.318753,-30.259176 9.359748,-2.02832 17.25634,-0.31286 14.33564,3.14259 -1.7786,2.14594 -5.278793,12.311135 -6.999114,20.329653 -0.848907,3.643585 -2.417901,10.810114 -3.676311,15.785999 -5.635125,23.552729 -6.230455,38.580056 -2.748924,63.8871046 2.07716,15.6006895 6.162716,33.5880834 8.358739,37.5719104 3.01477,5.232761 1.144664,6.396849 -7.881508,5.622596 -12.804202,-1.259184 -25.4052,-8.995485 -37.799146,-23.32958 -3.772935,-4.3999744 -9.83366,-14.0099774 -16.314114,-25.711942 -4.512697,-8.092909 -9.594921,-13.879862 -19.718191,-22.515953 -2.739984,-2.288303 -4.992239,-4.560502 -4.982783,-4.927308 0,-0.366808 2.021691,-2.015819 4.390257,-3.531627 z"
       id="path4-6-9-00-4-5-5" />
    <path
       style="stroke-width:0.12226067"
       inkscape:connector-curvature="0"
       d="m 94.166291,175.17836 c 2.328948,-9.5898 2.40384,-23.08572 0.08797,-33.39868 -1.224676,-5.6783 -2.408958,-12.22139 -2.563862,-14.56362 -2.449588,-24.94331 -0.553924,-36.628925 8.452811,-50.511584 5.28466,-7.988618 12.13423,-12.273295 12.45656,-7.759328 0.22879,2.778319 4.8128,12.499764 9.18106,19.441105 1.9353,3.200103 5.81663,9.427745 8.39122,13.868367 12.41157,20.79408 22.47759,31.96769 42.64389,47.65094 12.37989,9.71735 27.86172,19.74376 32.21516,21.05993 5.81482,1.64058 5.28824,3.77984 -1.71701,9.52923 -10.04325,8.03973 -24.46682,11.2999 -43.34658,9.69127 -5.77444,-0.51378 -16.82126,-3.16277 -29.63264,-7.01469 -8.88505,-2.64028 -16.55695,-3.23664 -29.83865,-2.34939 -3.558986,0.27582 -6.758819,0.22112 -7.006265,-0.0484 -0.257919,-0.2702 0.06186,-2.85399 0.677141,-5.59525 z"
       id="path4-6-4-1-4-0-5-1" />
    <circle
       style="fill:#000000;fill-opacity:0.95686275;stroke-width:0.70996845"
       id="path630-7-9-4"
       cx="333.06174"
       cy="-35.211876"
       r="185.1212" />
    <circle
       style="fill:#000000;fill-opacity:0.95686275;stroke-width:0.51450187"
       id="path690-9-88-2-4"
       cx="151.50482"
       cy="-147.69745"
       r="13.358567" />
    <circle
       style="fill:#000000;fill-opacity:0.95686275;stroke-width:0.51450187"
       id="path690-0-8-3-4-9"
       cx="186.96794"
       cy="-188.52211"
       r="13.358567" />
    <circle
       style="fill:#000000;fill-opacity:0.95686275;stroke-width:0.51450187"
       id="path690-4-3-6-1-7"
       cx="231.87552"
       cy="-220.48819"
       r="13.358567" />
    <circle
       style="fill:#000000;fill-opacity:0.95686275;stroke-width:0.51450187"
       id="path690-2-78-34-8-3"
       cx="282.6738"
       cy="-239.72978"
       r="13.358567" />
    <circle
       style="fill:#000000;fill-opacity:0.95686275;stroke-width:0.51450187"
       id="path690-27-2-0-7-1"
       cx="337.76419"
       cy="-244.92877"
       r="13.358567" />
    <circle
       style="fill:#000000;fill-opacity:0.95686275;stroke-width:0.51450187"
       id="path690-44-3-6-6-0"
       cx="393.09772"
       cy="-234.99709"
       r="13.358567" />
    <circle
       style="fill:#000000;fill-opacity:0.95686275;stroke-width:0.51450187"
       id="path690-446-9-1-8-0"
       cx="444.17761"
       cy="-211.06824"
       r="13.358567" />
    <circle
       style="fill:#000000;fill-opacity:0.95686275;stroke-width:0.51450187"
       id="path690-7-2-3-1-2"
       cx="120.26437"
       cy="-44.492538"
       r="13.358567" />
    <circle
       style="fill:#000000;fill-opacity:0.95686275;stroke-width:0.51450187"
       id="path690-77-3-78-9-9"
       cx="130.22154"
       cy="-100.02377"
       r="13.358567" />
    <circle
       style="fill:#000000;fill-opacity:0.95686275;stroke-width:0.51450187"
       id="path690-5-9-71-3-8"
       cx="513.04187"
       cy="-136.2867"
       r="13.358567" />
    <circle
       style="fill:#000000;fill-opacity:0.95686275;stroke-width:0.51450187"
       id="path690-65-0-5-2-4"
       cx="482.74408"
       cy="-178.90045"
       r="13.358567" />
    <circle
       style="fill:#000000;fill-opacity:0.95686275;stroke-width:0.51450187"
       id="path690-8-10-94-6-4"
       cx="531.73206"
       cy="-93.378654"
       r="13.358567" />
    <circle
       style="fill:#000000;fill-opacity:0.95686275;stroke-width:0.51450187"
       id="path690-8-5-7-6-3-9"
       cx="539.31921"
       cy="-40.71067"
       r="13.358567" />
    <circle
       transform="scale(1,-1)"
       style="fill:#000000;fill-opacity:0.95686275;stroke-width:0.51450187"
       id="path690-6-2-7-1-6-6-7"
       cx="147.21521"
       cy="-68.871986"
       r="13.358567" />
    <circle
       transform="scale(1,-1)"
       style="fill:#000000;fill-opacity:0.95686275;stroke-width:0.51450187"
       id="path690-0-7-3-6-4-1-4-1"
       cx="175.91692"
       cy="-109.31773"
       r="13.358567" />
    <circle
       transform="scale(1,-1)"
       style="fill:#000000;fill-opacity:0.95686275;stroke-width:0.51450187"
       id="path690-4-7-9-8-5-3-2-0"
       cx="220.71016"
       cy="-144.50452"
       r="13.358567" />
    <circle
       transform="scale(1,-1)"
       style="fill:#000000;fill-opacity:0.95686275;stroke-width:0.51450187"
       id="path690-2-7-3-5-3-7-7-2"
       cx="275.03467"
       cy="-167.62955"
       r="13.358567" />
    <circle
       transform="scale(1,-1)"
       style="fill:#000000;fill-opacity:0.95686275;stroke-width:0.51450187"
       id="path690-27-8-8-4-9-9-1-7"
       cx="331.68924"
       cy="-175.0984"
       r="13.358567" />
    <circle
       transform="scale(1,-1)"
       style="fill:#000000;fill-opacity:0.95686275;stroke-width:0.51450187"
       id="path690-44-5-3-9-7-103-3-0"
       cx="381.80252"
       cy="-167.58388"
       r="13.358567" />
    <circle
       transform="scale(1,-1)"
       style="fill:#000000;fill-opacity:0.95686275;stroke-width:0.51450187"
       id="path690-446-8-2-7-9-6-8-6"
       cx="434.88541"
       cy="-146.66829"
       r="13.358567" />
    <circle
       transform="scale(1,-1)"
       style="fill:#000000;fill-opacity:0.95686275;stroke-width:0.51450187"
       id="path690-77-4-8-4-2-8-9-5"
       cx="126.1396"
       cy="-18.011549"
       r="13.358567" />
    <circle
       transform="scale(1,-1)"
       style="fill:#000000;fill-opacity:0.95686275;stroke-width:0.51450187"
       id="path690-5-2-2-2-4-7-9-1"
       cx="511.18466"
       cy="-69.875488"
       r="13.358567" />
    <circle
       transform="scale(1,-1)"
       style="fill:#000000;fill-opacity:0.95686275;stroke-width:0.51450187"
       id="path690-65-8-9-4-0-4-0-7"
       cx="477.67615"
       cy="-113.69366"
       r="13.358567" />
    <circle
       transform="scale(1,-1)"
       style="fill:#000000;fill-opacity:0.95686275;stroke-width:0.51450187"
       id="path690-8-1-2-8-1-81-4-3"
       cx="533.49188"
       cy="-18.124634"
       r="13.358567" />
    <circle
       style="fill:#ffffff;fill-opacity:0.95686275;stroke-width:0.57757694"
       id="path1533-4-4-6-9"
       cx="234.06274"
       cy="-72.423157"
       r="47.222237" />
    <circle
       style="fill:#ffffff;fill-opacity:0.95686275;stroke-width:0.78320271"
       id="path1552-0-9-2-4-4-0"
       cx="234.1601"
       cy="-72.031502"
       r="16.979601" />
    <circle
       style="fill:#ffffff;fill-opacity:0.95686275;stroke-width:0.57899308"
       id="path1533-8-6-2-3-2"
       cx="425.54486"
       cy="-77.005806"
       r="47.33802" />
    <circle
       style="fill:#ffffff;fill-opacity:0.95686275;stroke-width:0.78913867"
       id="path1552-0-8-1-3-7"
       cx="425.26627"
       cy="-76.758942"
       r="17.108286" />
    <path
       style="fill:#ffffff;fill-opacity:0.95686275;stroke-width:0.2748999"
       d="m 329.71971,81.198253 c -16.75966,-0.548816 -21.84827,-1.878295 -28.9238,-7.55559 -4.84294,-3.888214 -12.0146,-10.131711 -15.06466,-19.229458 -2.40127,-6.158878 -4.61749,-12.148543 1.739,-12.991574 0.5212,6.308165 2.55515,9.27667 5.30689,14.61885 3.70775,7.208454 10.56065,12.747213 16.4161,15.116801 3.05695,1.238478 9.76132,2.808485 12.91183,3.208528 4.59093,0.584858 31.14257,0.899526 35.34342,0.317233 1.66867,-0.23288 4.70008,-0.564161 7.02571,-1.309288 8.26159,-2.64898 10.64166,-4.094753 14.2377,-7.822446 3.24022,-3.360638 7.1788,-12.288121 7.71407,-15.334591 2.0383,-4.307184 0.42714,-11.31139 7.19032,-9.928751 0,8.459704 -5.59398,22.477848 -11.98471,30.03114 -3.07817,3.637965 -9.42928,7.976602 -13.64086,9.32013 -5.58936,1.784202 -17.09042,2.251984 -38.27101,1.559264 z"
       id="path389-6-9-7-3"
       inkscape:connector-curvature="0"
       sodipodi:nodetypes="cccccscccccccccc" />
    <path
       style="fill:#ffffff;fill-opacity:0;stroke-width:0.27307916"
       d="m 227.36936,-25.805894 c -19.88,-3.043906 -35.47635,-17.781367 -39.46783,-37.295327 -1.11475,-5.456437 -1.11475,-13.258958 0,-18.666833 2.91891,-14.141361 12.02763,-26.092836 24.85511,-32.616476 13.34842,-6.78695 29.0038,-6.83578 42.37345,-0.13163 14.03782,7.03845 23.40218,20.195175 25.64573,36.024119 0.40235,2.843256 0.31954,9.985245 -0.1692,13.10942 -2.83788,18.670667 -16.73589,33.993483 -35.03796,38.623522 -5.39228,1.362953 -12.94888,1.75892 -18.20799,0.953719 z m 12.2894,-30.109878 c 12.37272,-4.264741 15.55312,-20.029288 5.82017,-28.838423 -3.09681,-2.801847 -6.9472,-4.253507 -11.26896,-4.246088 -4.72025,0 -8.36819,1.461112 -11.75718,4.680378 -3.43322,3.266562 -5.01985,6.722268 -5.24454,11.427203 -0.16974,3.434236 0.28807,5.649686 1.68528,8.437728 2.47695,4.920922 7.07147,8.306845 12.64345,9.320879 2.18631,0.3975 5.67652,0.05982 8.12178,-0.781677 z"
       id="path536-7-1"
       inkscape:connector-curvature="0" />
    <path
       style="fill:#ffffff;fill-opacity:0;stroke-width:0.27307916"
       d="m 227.36936,-25.805894 c -19.88,-3.043906 -35.47635,-17.781367 -39.46783,-37.295327 -1.11475,-5.456437 -1.11475,-13.258958 0,-18.666833 2.91891,-14.141361 12.02763,-26.092836 24.85511,-32.616476 13.34842,-6.78695 29.0038,-6.83578 42.37345,-0.13163 14.03782,7.03845 23.40218,20.195175 25.64573,36.024119 0.40235,2.843256 0.31954,9.985245 -0.1692,13.10942 -2.83788,18.670667 -16.73589,33.993483 -35.03796,38.623522 -5.39228,1.362953 -12.94888,1.75892 -18.20799,0.953719 z m 12.2894,-30.109878 c 12.37272,-4.264741 15.55312,-20.029288 5.82017,-28.838423 -3.09681,-2.801847 -6.9472,-4.253507 -11.26896,-4.246088 -4.72025,0 -8.36819,1.461112 -11.75718,4.680378 -3.43322,3.266562 -5.01985,6.722268 -5.24454,11.427203 -0.16974,3.434236 0.28807,5.649686 1.68528,8.437728 2.47695,4.920922 7.07147,8.306845 12.64345,9.320879 2.18631,0.3975 5.67652,0.05982 8.12178,-0.781677 z"
       id="path538-0-8"
       inkscape:connector-curvature="0" />
    <path
       style="fill:#ffffff;fill-opacity:0;stroke-width:0.27307916"
       d="m 421.45703,-29.939257 c -2.75149,-0.218557 -7.56351,-1.240257 -10.71657,-2.274746 -19.91375,-6.533375 -33.34832,-25.929738 -32.33401,-46.686523 0.53526,-10.918509 4.10932,-20.161169 10.98598,-28.400554 11.76792,-14.0979 30.491,-20.02724 48.31354,-15.29828 28.672,7.60799 43.24509,39.595132 30.23128,66.364059 -6.02366,12.390377 -17.82584,21.863609 -31.32228,25.145505 -4.33835,1.05493 -10.48855,1.521696 -15.15794,1.150539 z m 9.14834,-30.499437 c 5.18193,-1.653861 9.31936,-5.836798 11.1069,-11.225003 0.8893,-2.684767 0.90158,-7.343922 0.0617,-10.104357 -1.39744,-4.416846 -4.65965,-8.291011 -8.60872,-10.224261 -2.91354,-1.4266 -4.95823,-1.92761 -7.85415,-1.92761 -11.18409,0 -19.4301,10.593866 -16.66353,21.410385 2.46008,9.61537 12.46627,15.109651 21.99141,12.070846 z"
       id="path540-0-3"
       inkscape:connector-curvature="0" />
    <path
       style="fill:#ffffff;fill-opacity:0;stroke-width:0.27307916"
       d="m 227.36936,-25.805894 c -19.88,-3.043906 -35.47635,-17.781367 -39.46783,-37.295327 -1.11475,-5.456437 -1.11475,-13.258958 0,-18.666833 2.91891,-14.141361 12.02763,-26.092836 24.85511,-32.616476 13.34842,-6.78695 29.0038,-6.83578 42.37345,-0.13163 14.03782,7.03845 23.40218,20.195175 25.64573,36.024119 0.40235,2.843256 0.31954,9.985245 -0.1692,13.10942 -2.83788,18.670667 -16.73589,33.993483 -35.03796,38.623522 -5.39228,1.362953 -12.94888,1.75892 -18.20799,0.953719 z m 12.2894,-30.109878 c 12.37272,-4.264741 15.55312,-20.029288 5.82017,-28.838423 -3.09681,-2.801847 -6.9472,-4.253507 -11.26896,-4.246088 -4.72025,0 -8.36819,1.461112 -11.75718,4.680378 -3.43322,3.266562 -5.01985,6.722268 -5.24454,11.427203 -0.16974,3.434236 0.28807,5.649686 1.68528,8.437728 2.47695,4.920922 7.07147,8.306845 12.64345,9.320879 2.18631,0.3975 5.67652,0.05982 8.12178,-0.781677 z"
       id="path542-3-2"
       inkscape:connector-curvature="0" />
    <path
       style="fill:#ffffff;fill-opacity:0;stroke-width:0.27307916"
       d="m 227.36936,-25.805894 c -19.88,-3.043906 -35.47635,-17.781367 -39.46783,-37.295327 -1.11475,-5.456437 -1.11475,-13.258958 0,-18.666833 2.91891,-14.141361 12.02763,-26.092836 24.85511,-32.616476 13.34842,-6.78695 29.0038,-6.83578 42.37345,-0.13163 14.03782,7.03845 23.40218,20.195175 25.64573,36.024119 0.40235,2.843256 0.31954,9.985245 -0.1692,13.10942 -2.83788,18.670667 -16.73589,33.993483 -35.03796,38.623522 -5.39228,1.362953 -12.94888,1.75892 -18.20799,0.953719 z m 12.2894,-30.109878 c 12.37272,-4.264741 15.55312,-20.029288 5.82017,-28.838423 -3.09681,-2.801847 -6.9472,-4.253507 -11.26896,-4.246088 -4.72025,0 -8.36819,1.461112 -11.75718,4.680378 -3.43322,3.266562 -5.01985,6.722268 -5.24454,11.427203 -0.16974,3.434236 0.28807,5.649686 1.68528,8.437728 2.47695,4.920922 7.07147,8.306845 12.64345,9.320879 2.18631,0.3975 5.67652,0.05982 8.12178,-0.781677 z"
       id="path544-8-4"
       inkscape:connector-curvature="0" />
    <path
       style="fill:#ffffff;fill-opacity:0;stroke-width:0.27307916"
       d="m 421.45703,-29.939257 c -2.75149,-0.218557 -7.56351,-1.240257 -10.71657,-2.274746 -19.91375,-6.533375 -33.34832,-25.929738 -32.33401,-46.686523 0.53526,-10.918509 4.10932,-20.161169 10.98598,-28.400554 11.76792,-14.0979 30.491,-20.02724 48.31354,-15.29828 28.672,7.60799 43.24509,39.595132 30.23128,66.364059 -6.02366,12.390377 -17.82584,21.863609 -31.32228,25.145505 -4.33835,1.05493 -10.48855,1.521696 -15.15794,1.150539 z m 9.14834,-30.499437 c 5.18193,-1.653861 9.31936,-5.836798 11.1069,-11.225003 0.8893,-2.684767 0.90158,-7.343922 0.0617,-10.104357 -1.39744,-4.416846 -4.65965,-8.291011 -8.60872,-10.224261 -2.91354,-1.4266 -4.95823,-1.92761 -7.85415,-1.92761 -11.18409,0 -19.4301,10.593866 -16.66353,21.410385 2.46008,9.61537 12.46627,15.109651 21.99141,12.070846 z"
       id="path546-7-7"
       inkscape:connector-curvature="0" />
    <path
       style="fill:#ff0000;fill-opacity:0;stroke-width:0.48189217"
       d="m 326.77523,-84.223779 c -1.97236,-2.277068 -6.91984,-7.767246 -10.99597,-12.200196 l -7.40936,-8.060435 0.56697,-21.83626 c 0.65873,-25.39447 1.43785,-44.04776 2.13006,-51.04252 0.25793,-2.71798 0.64007,-8.78409 0.82591,-13.47929 0.16897,-4.69573 0.52733,-8.99243 0.76328,-9.5484 0.34174,-0.80597 0.82769,-1.00969 2.3793,-1.00406 3.6436,0.03 3.44804,-1.31081 3.08072,20.50882 -0.16896,10.83441 -0.80903,29.48719 -1.38674,41.45041 -0.85324,17.62007 -0.92636,21.90119 -0.39441,22.541 2.40103,2.89847 12.98571,14.34048 13.24898,14.32336 0.68429,-0.0422 9.17314,-9.10951 10.40319,-11.1064 1.24077,-2.01888 1.29777,-2.46569 1.45472,-11.54963 0.0879,-5.73302 -0.3663,-19.16965 -1.17917,-34.16272 -2.01198,-37.03741 -2.13519,-41.11683 -1.26072,-41.59713 1.07336,-0.59279 4.27293,-0.49922 5.30052,0.1549 1.32871,0.84304 1.69757,4.13668 2.90666,25.71578 0.59328,10.6266 1.3154,21.84853 1.59992,24.93819 1.149,12.45836 1.46954,18.42118 1.79342,33.24991 l 0.33818,15.50176 -3.47361,3.594765 c -1.91253,1.97671 -4.18934,4.50426 -5.0638,5.61647 -3.11423,3.960807 -11.0108,12.131668 -11.72475,12.131668 -0.16921,0 -1.93451,-1.862945 -3.9033,-4.139992 z"
       id="path3264-0-3-8-5"
       inkscape:connector-curvature="0" />
    <path
       style="fill:#ff0000;fill-opacity:0;stroke-width:0.48189217"
       d="m 326.77523,-84.223779 c -1.97236,-2.277068 -6.91984,-7.767246 -10.99597,-12.200196 l -7.40936,-8.060435 0.56697,-21.83626 c 0.65873,-25.39447 1.43785,-44.04776 2.13006,-51.04252 0.25793,-2.71798 0.64007,-8.78409 0.82591,-13.47929 0.16897,-4.69573 0.52733,-8.99243 0.76328,-9.5484 0.34174,-0.80597 0.82769,-1.00969 2.3793,-1.00406 3.6436,0.03 3.44804,-1.31081 3.08072,20.50882 -0.16896,10.83441 -0.80903,29.48719 -1.38674,41.45041 -0.85324,17.62007 -0.92636,21.90119 -0.39441,22.541 2.40103,2.89847 12.98571,14.34048 13.24898,14.32336 0.68429,-0.0422 9.17314,-9.10951 10.40319,-11.1064 1.24077,-2.01888 1.29777,-2.46569 1.45472,-11.54963 0.0879,-5.73302 -0.3663,-19.16965 -1.17917,-34.16272 -2.01198,-37.03741 -2.13519,-41.11683 -1.26072,-41.59713 1.07336,-0.59279 4.27293,-0.49922 5.30052,0.1549 1.32871,0.84304 1.69757,4.13668 2.90666,25.71578 0.59328,10.6266 1.3154,21.84853 1.59992,24.93819 1.149,12.45836 1.46954,18.42118 1.79342,33.24991 l 0.33818,15.50176 -3.47361,3.594765 c -1.91253,1.97671 -4.18934,4.50426 -5.0638,5.61647 -3.11423,3.960807 -11.0108,12.131668 -11.72475,12.131668 -0.16921,0 -1.93451,-1.862945 -3.9033,-4.139992 z"
       id="path3266-7-5-1-5"
       inkscape:connector-curvature="0" />
    <path
       style="fill:#ff0000;fill-opacity:0;stroke-width:0.48189217"
       d="m 326.77523,-84.223779 c -1.97236,-2.277068 -6.91984,-7.767246 -10.99597,-12.200196 l -7.40936,-8.060435 0.56697,-21.83626 c 0.65873,-25.39447 1.43785,-44.04776 2.13006,-51.04252 0.25793,-2.71798 0.64007,-8.78409 0.82591,-13.47929 0.16897,-4.69573 0.52733,-8.99243 0.76328,-9.5484 0.34174,-0.80597 0.82769,-1.00969 2.3793,-1.00406 3.6436,0.03 3.44804,-1.31081 3.08072,20.50882 -0.16896,10.83441 -0.80903,29.48719 -1.38674,41.45041 -0.85324,17.62007 -0.92636,21.90119 -0.39441,22.541 2.40103,2.89847 12.98571,14.34048 13.24898,14.32336 0.68429,-0.0422 9.17314,-9.10951 10.40319,-11.1064 1.24077,-2.01888 1.29777,-2.46569 1.45472,-11.54963 0.0879,-5.73302 -0.3663,-19.16965 -1.17917,-34.16272 -2.01198,-37.03741 -2.13519,-41.11683 -1.26072,-41.59713 1.07336,-0.59279 4.27293,-0.49922 5.30052,0.1549 1.32871,0.84304 1.69757,4.13668 2.90666,25.71578 0.59328,10.6266 1.3154,21.84853 1.59992,24.93819 1.149,12.45836 1.46954,18.42118 1.79342,33.24991 l 0.33818,15.50176 -3.47361,3.594765 c -1.91253,1.97671 -4.18934,4.50426 -5.0638,5.61647 -3.11423,3.960807 -11.0108,12.131668 -11.72475,12.131668 -0.16921,0 -1.93451,-1.862945 -3.9033,-4.139992 z"
       id="path3268-6-8-6-3"
       inkscape:connector-curvature="0" />
    <path
       style="fill:#ffffff;fill-opacity:0.95686275;stroke-width:0.30354214"
       d="m 330.47941,-39.681926 c -0.78629,-0.180211 -1.80237,-2.18861 -2.19934,-4.336577 -0.49232,-2.672995 -0.41999,-8.005719 0.14877,-10.567788 0.68505,-3.121375 0.62678,-4.917604 -0.19122,-6.276724 -1.09353,-1.787045 -9.2286,-10.535598 -14.60044,-15.703698 -4.3928,-4.222583 -6.27724,-6.120286 -14.33638,-14.434822 l -7.54791,-7.78307 0.19119,-48.115175 c 0.0994,-26.46297 0.28705,-49.67495 0.39878,-51.58188 l 0.19195,-3.46721 h 2.20932 2.21008 l 0.36886,0.97621 c 0.25971,0.71599 0.28962,1.26377 0,2.05186 -0.82156,2.48588 -1.08204,14.36425 -1.1007,50.4648 0,37.8444 0.0997,43.11297 1.2707,47.89713 0.92176,3.796975 1.50917,4.586835 7.96227,10.687955 5.15635,4.876443 9.54661,9.233457 16.8256,16.700344 3.41482,3.502504 6.71409,6.785668 7.33117,7.296145 l 1.12446,0.927897 4.0467,-3.758117 c 5.57275,-5.170667 8.57014,-8.096227 13.70525,-13.381406 2.41969,-2.490751 7.19798,-7.266467 10.62405,-10.613543 l 6.22355,-6.08501 0.0617,-48.115175 c 0.0264,-26.46297 0.14877,-49.64326 0.25791,-51.51107 l 0.19122,-3.39667 1.49945,-0.0818 1.4941,-0.0818 0.19043,2.17915 c 0.11249,1.19859 0.21217,24.62584 0.21217,52.06142 v 49.882265 l -2.72874,2.93093 c -1.50305,1.61168 -3.5899,3.78469 -4.63847,4.8289 -20.45769,20.334495 -29.53062,29.806445 -29.95239,31.269109 0.92379,4.884878 3.1101,17.512446 -0.71319,19.301523 -0.11169,-0.02992 -0.46498,-0.08844 -0.76762,-0.156938 z"
       id="path3559-5-1-9-5"
       inkscape:connector-curvature="0"
       sodipodi:nodetypes="ccscccccccccccccccccccccccccccsccccccc" />
    <path
       style="fill:#ffffff;fill-opacity:0.95686275;stroke-width:0.85854691"
       d="m 322.64723,-88.991847 c -4.03161,-4.512958 -8.88249,-9.916738 -10.78072,-12.008223 l -3.45162,-3.80308 1.07411,-33.02114 c 0.59252,-18.16172 1.46444,-37.34415 1.94246,-42.62779 0.47723,-5.28365 0.87881,-11.99952 0.89108,-14.92432 0,-5.48481 0.99846,-6.83602 4.16403,-5.77851 1.17713,0.39288 1.37087,3.30208 1.30314,19.78797 -0.0619,10.62966 -0.56542,29.32741 -1.1536,41.55011 l -1.06899,22.22299 6.81785,7.61796 6.82223,7.61747 2.20037,-1.79702 c 1.20983,-0.98796 3.94112,-3.75837 6.06762,-6.15632 l 3.86983,-4.35907 0.2896,-8.87485 c 0.16999,-4.88104 -0.52733,-24.00467 -1.51633,-42.49691 -0.98695,-18.49224 -1.60939,-33.89227 -1.37626,-34.22279 0.61043,-0.87166 5.63002,-0.73695 6.27111,0.17 0.30189,0.42253 1.1375,10.59923 1.86218,22.6146 0.7239,12.01538 1.73898,27.25002 2.25762,33.85419 0.51687,6.60442 1.09814,18.76371 1.29089,27.02122 l 0.35045,15.01276 -4.54261,5.000175 c -10.99572,12.096909 -14.6058,15.807481 -15.40078,15.807481 -0.46855,0 -4.14282,-3.692416 -8.17829,-8.205619 z"
       id="path3585-2-1-81-8"
       inkscape:connector-curvature="0" />
    <ellipse
       style="fill:#ffffff;fill-opacity:0.95686275;stroke-width:0.75402033"
       id="path3659-7-1"
       cx="332.42761"
       cy="-25.555511"
       rx="7.1280222"
       ry="7.9965596" />
    <path
       sodipodi:type="star"
       style="fill:#ffffff;fill-opacity:0.95686275;stroke-width:0.75"
       id="path3661-9-3"
       sodipodi:sides="3"
       sodipodi:cx="5499.2407"
       sodipodi:cy="7516.2876"
       sodipodi:r1="9.53162"
       sodipodi:r2="4.76581"
       sodipodi:arg1="1.5490606"
       sodipodi:arg2="2.5962582"
       inkscape:flatsided="false"
       inkscape:rounded="0"
       inkscape:randomized="0"
       d="m 5499.4479,7525.817 -4.2817,-7.0574 -4.2817,-7.0573 8.2526,-0.1794 8.2527,-0.1794 -3.9709,7.2367 z"
       inkscape:transform-center-x="0.091050268"
       inkscape:transform-center-y="2.2872885"
       transform="matrix(0.88949423,0,0,0.9978774,-4558.336,-7507.4182)" />
    <circle
       style="fill:#ffffff;fill-opacity:0.95686275;stroke-width:0.57899308"
       id="path1533-8-6-2-3-2-8"
       cx="426.02515"
       cy="-77.251213"
       r="47.33802" />
    <path
       style="fill:#000000;fill-opacity:0.95686275;stroke-width:0.27307916"
       d="m 421.63314,-59.761808 c -5.93471,-1.288071 -11.19559,-6.46819 -12.73827,-12.54118 -0.52043,-2.060046 -0.52913,-5.785687 0,-7.999603 1.39031,-5.896612 6.36339,-10.922864 12.34999,-12.473184 2.07179,-0.53783 5.95848,-0.54599 8.19847,-0.0299 7.15835,1.6881 12.42999,8.084206 12.82798,15.567447 0.28629,5.154562 -1.33842,9.257746 -5.08834,12.973437 -4.15868,4.114187 -9.78869,5.741189 -15.54727,4.491213 z"
       id="path534-7-7-2"
       inkscape:connector-curvature="0" />
    <circle
       style="fill:#ffffff;fill-opacity:0.95686275;stroke-width:0.57899308"
       id="path1533-8-6-2-3-2-8-5"
       cx="234.08121"
       cy="-71.836533"
       r="47.33802" />
    <path
       style="fill:#000000;fill-opacity:0.95686275;stroke-width:0.27307916"
       d="m 229.82738,-55.973036 c -5.93471,-1.288053 -11.19559,-6.468171 -12.73826,-12.54118 -0.52043,-2.060026 -0.52914,-5.785667 0,-7.999584 1.39031,-5.896631 6.36337,-10.922861 12.34998,-12.473197 2.0718,-0.537818 5.95848,-0.545998 8.19847,-0.02991 7.15836,1.68812 12.42998,8.084207 12.82799,15.567465 0.28628,5.154545 -1.33841,9.257747 -5.08835,12.973418 -4.15867,4.114188 -9.78869,5.74121 -15.54725,4.491234 z"
       id="path534-7-7-2-9"
       inkscape:connector-curvature="0" />
  </g>
</svg>
